<svg width="580" height="170" xmlns="http://www.w3.org/2000/svg">
 <!-- Created with Method Draw - http://github.com/duopixel/Method-Draw/ -->

 <g>
  <title>background</title>
  <rect fill="none" id="canvas_background" height="172" width="582" y="-1" x="-1"/>
  <g display="none" overflow="visible" y="0" x="0" height="100%" width="100%" id="canvasGrid">
   <rect fill="url(#gridpattern)" stroke-width="0" y="0" x="0" height="100%" width="100%"/>
  </g>
 </g>
 <g>
  <title>Layer 1</title>
  <g stroke="null" id="svg_5">
   <path stroke="null" id="svg_4" d="m37.612852,92.124299l-21.607655,0l27.361646,-28.893988l-19.932195,0l4.450657,-19.009202l26.922907,0l4.272654,-18.248834l-26.922907,0l14.062857,-24.530136l19.932195,0l-3.141429,5.520934l47.346185,0l-4.450686,19.009202l-26.922907,0l-4.272654,18.248834l26.922907,0l-4.450657,19.009202l-19.758872,0l16.315859,28.893988l-21.578768,0l-12.898355,-23.0094l-21.650784,23.0094zm131.877093,-85.161226l-19.939041,85.161226l-16.610163,0l15.488355,-66.152024l-19.441112,0l-11.03767,47.142822l14.44362,0l-4.450686,19.009202l-31.053782,0l19.939041,-85.161226l52.661437,0zm-24.685301,91.244171l-16.471359,70.350578l-16.610163,0l12.020702,-51.341376l-93.01691,0l-2.004746,8.562406l88.048305,0l-3.560554,15.207362l-88.048305,0l-2.004746,8.562406l88.048305,0l-4.450657,19.009202l-104.658468,0l16.471359,-70.350578l126.237235,0zm56.566501,-52.829053l-19.932195,0l-7.615918,-38.415118l19.932195,0l7.615918,38.415118zm105.333187,-38.415118l-37.834628,161.59475l-73.084715,0l-2.193408,-19.009202l59.796585,0l28.933285,-123.576345l-71.409255,0l4.450686,-19.009202l91.34145,0zm-29.578049,27.009597l-4.450686,19.009202l-66.44065,0l4.450686,-19.009202l66.44065,0zm-78.555005,16.331384l-23.236433,99.244566l14.934703,0l-11.094722,19.009202l-28.25172,0l23.236404,-99.244566l-14.934703,0l4.450686,-19.009202l34.895785,0zm51.292182,85.921595l-19.932195,0l12.817961,-54.746503l-19.932195,0l-8.367275,35.7373l16.610163,0l-4.450686,19.009202l-36.542358,0l17.268618,-73.755705l59.796585,0l-17.268618,73.755705zm89.252354,-129.262576l-25.357796,57.225964l-18.285622,0l25.357796,-57.225964l18.285622,0zm8.637285,0l18.256735,0l-2.912411,57.225964l-18.285622,0l2.941299,-57.225964zm93.361506,19.009202l-29.060563,0l-6.93496,19.009202l29.898293,0l-19.497847,83.276836l-16.610163,0l15.047161,-64.267634l-31.573752,0l-15.047161,64.267634l-16.581275,0l19.497847,-83.276836l16.581275,0l6.963847,-19.009202l-20.769925,0l4.450686,-19.009202l68.087223,0l-4.450686,19.009202zm-99.971484,38.216762l-16.610163,0l1.615894,-22.447388l16.610163,0l-1.615894,22.447388zm63.458447,7.802038l-12.415447,53.02741l-29.606214,43.539338l-18.285622,0l31.73061,-45.456788l11.96651,-51.10996l16.610163,0zm-109.958814,26.216169l4.450686,-19.009202l54.82798,0l-4.450686,19.009202l-34.124149,52.101744l6.184556,18.248834l-21.578768,0l-15.885237,-47.142822l21.607655,0l2.523936,7.603681l19.664353,-30.811438l-33.220325,0zm87.58998,48.101547l12.568,-19.009202l10.127866,41.258234l-16.610163,0l-6.085704,-22.249032zm100.885968,-139.345718l-2.229199,9.521131l14.96359,0l-35.559007,151.875262l-21.578768,0l-2.222266,-19.009202l11.641557,0l11.130571,-47.539536l-16.610163,0l-15.581257,66.548738l-16.610163,0l15.581257,-66.548738l-4.968605,0l4.450686,-19.009202l4.968605,0l15.527064,-66.317322l14.96359,0l2.229199,-9.521131l19.903308,0zm95.785203,9.521131l-4.450686,19.009202l-76.233424,0l4.450686,-19.009202l28.222833,0l2.229199,-9.521131l19.932195,0l-2.229199,9.521131l28.078397,0zm-131.798202,66.317322l16.610163,0l11.076379,-47.308119l-16.610163,0l-11.076379,47.308119zm18.87342,-41.621888l-1.769661,35.935657l-8.290638,0l1.769661,-35.935657l8.290638,0zm78.896914,106.451533l12.305964,0l-13.045795,20.926652l-24.091957,0l24.745762,-105.691165l-29.724969,0l-24.745762,105.691165l-19.932195,0l29.196448,-124.700367l69.589359,0l-24.296855,103.773715zm-96.240091,-4.000197l-8.290638,0l1.761919,-35.902598l8.290638,0l-1.761919,35.902598z"/>
  </g>
 </g>
</svg>