<svg xmlns="http://www.w3.org/2000/svg" viewBox="0 0 261.76 226.69">
<path d="M17.268430635427784-15.93L9.788430635427783-15.93 19.2603065772758-24.67 12.360306577275797-24.67 13.901014433754753-30.42 23.221014433754753-30.42 24.70009397597455-35.94 15.38009397597455-35.94 20.248276983813483-43.36 27.14827698381348-43.36 26.060801832453507-41.69 42.45080183245351-41.69 40.91009397597455-35.94 31.59009397597455-35.94 30.111014433754754-30.42 39.431014433754754-30.42 37.8903065772758-24.67 31.050306577275798-24.67 36.69843063542778-15.93 29.228430635427785-15.93 24.763357014748397-22.89 17.268430635427784-15.93ZM62.920801832453506-41.69L56.018430635427784-15.93 50.268430635427784-15.93 55.630093975974546-35.94 48.900093975974556-35.94 45.07913849190675-21.68 50.07913849190675-21.68 48.53843063542779-15.93 37.78843063542779-15.93 44.69080183245351-41.69 62.920801832453506-41.69ZM54.37540412135452-14.09L48.67344530642023 7.19 42.92344530642023 7.19 47.08469626487557-8.34 14.884696264875563-8.34 14.190707856478955-5.75 44.670707856478955-5.75 43.438141571295795-1.15 12.95814157129579-1.15 12.264153162899184 1.44 42.74415316289919 1.44 41.20344530642023 7.19 4.973445306420228 7.19 10.67540412135452-14.09 54.37540412135452-14.09ZM73.95723221640387-30.07L67.05723221640386-30.07 64.4208018324535-41.69 71.3208018324535-41.69 73.95723221640387-30.07ZM110.4208018324535-41.69L97.32344530642023 7.19 72.02344530642023 7.19 71.26415316289919 1.44 91.96415316289918 1.44 101.98009397597454-35.94 77.26009397597454-35.94 78.8008018324535-41.69 110.4208018324535-41.69ZM100.18165693029124-33.52L98.64094907381228-27.77 75.64094907381228-27.77 77.18165693029124-33.52 100.18165693029124-33.52ZM72.98798791968149-28.58L64.94415316289918 1.44 70.11415316289919 1.44 66.27344530642023 7.19 56.49344530642023 7.19 64.53728006320253-22.83 59.36728006320253-22.83 60.90798791968149-28.58 72.98798791968149-28.58ZM90.7439884083966-2.59L83.84398840839661-2.59 88.281227035056-19.15 81.381227035056-19.15 78.48469626487557-8.34 84.23469626487557-8.34 82.6939884083966-2.59 70.0439884083966-2.59 76.02193489153495-24.9 96.72193489153496-24.9 90.7439884083966-2.59ZM121.6408018324535-41.69L112.86260131147077-24.38 106.53260131147077-24.38 115.3108018324535-41.69 121.6408018324535-41.69ZM124.6308018324535-41.69L130.9508018324535-41.69 129.94260131147078-24.38 123.61260131147077-24.38 124.6308018324535-41.69ZM156.95009397597454-35.94L146.89009397597454-35.94 144.4893861194956-30.19 154.8393861194956-30.19 148.0897459621556-5 142.3397459621556-5 147.54867826301663-24.44 136.61867826301662-24.44 131.4097459621556-5 125.66974596215562-5 132.41938611949558-30.19 138.1593861194956-30.19 140.57009397597454-35.94 133.38009397597455-35.94 134.9208018324535-41.69 158.49080183245349-41.69 156.95009397597454-35.94ZM122.34260131147077-24.38L116.59260131147077-24.38 117.15197632807809-31.17 122.90197632807809-31.17 122.34260131147077-24.38ZM144.31024121733333-22.02L140.0123361707381-5.98 129.76344530642024 7.19 123.43344530642023 7.19 134.41774670234815-6.56 138.56024121733333-22.02 144.31024121733333-22.02ZM106.24540412135451-14.09L107.78611197783347-19.84 126.76611197783348-19.84 125.22540412135452-14.09 113.41252484864002 1.67 115.55344530642023 7.19 108.08344530642023 7.19 102.58440079048803-7.07 110.06440079048804-7.07 110.93811764789645-4.77 117.74540412135451-14.09 106.24540412135451-14.09ZM136.5667433714817 0.46L140.91745122796064-5.29 144.42344530642023 7.19 138.67344530642023 7.19 136.5667433714817 0.46ZM171.49080183245349-41.69L170.71910815825186-38.81 175.89910815825186-38.81 163.5895222579661 7.13 156.11952225796608 7.13 155.35023011444505 1.38 159.38023011444506 1.38 163.2333395016046-13 157.4833395016046-13 152.0895222579661 7.13 146.3395222579661 7.13 151.7333395016046-13 150.0133395016046-13 151.55404735808355-18.75 153.27404735808355-18.75 158.64910815825186-38.81 163.82910815825187-38.81 164.6008018324535-41.69 171.49080183245349-41.69ZM204.64910815825186-38.81L203.10840030177292-33.06 176.71840030177293-33.06 178.25910815825188-38.81 188.02910815825186-38.81 188.8008018324535-41.69 195.7008018324535-41.69 194.92910815825186-38.81 204.64910815825186-38.81ZM159.02404735808355-18.75L164.77404735808355-18.75 168.60840030177292-33.06 162.85840030177292-33.06 159.02404735808355-18.75ZM165.55752769079137-31.34L164.9449199690651-20.47 162.0749199690651-20.47 162.68752769079137-31.34 165.55752769079137-31.34ZM192.86956369450922 0.86L197.12956369450924 0.86 192.61344530642023 7.19 184.27344530642023 7.19 192.8397809884432-24.78 182.54978098844322-24.78 173.98344530642024 7.19 167.08344530642023 7.19 177.19048884492216-30.53 201.28048884492216-30.53 192.86956369450922 0.86ZM159.5537822173509-0.35L156.6837822173509-0.35 157.29371044715288-11.21 160.16371044715288-11.21 159.5537822173509-0.35Z" transform="translate(-4.973445415496826, 43.36000061035156)"></path>
</svg>
